<?xml version="1.0" standalone="no"?>
<!DOCTYPE svg PUBLIC "-//W3C//DTD SVG 20010904//EN"
 "http://www.w3.org/TR/2001/REC-SVG-20010904/DTD/svg10.dtd">
<svg version="1.0" xmlns="http://www.w3.org/2000/svg"
 width="230.000000pt" height="220.000000pt" viewBox="0 0 230.000000 220.000000"
 preserveAspectRatio="xMidYMid meet">

<g transform="translate(0.000000,220.000000) scale(0.100000,-0.100000)"
fill="#000000" stroke="none">
<path d="M770 951 c0 -5 7 -12 16 -15 14 -5 15 -4 4 9 -14 17 -20 19 -20 6z"/>
<path d="M1523 931 c0 -11 5 -18 9 -15 4 3 5 11 1 19 -7 21 -12 19 -10 -4z"/>
<path d="M1935 921 c-3 -5 -2 -12 3 -15 5 -3 9 1 9 9 0 17 -3 19 -12 6z"/>
<path d="M508 913 c7 -3 16 -2 19 1 4 3 -2 6 -13 5 -11 0 -14 -3 -6 -6z"/>
<path d="M1767 860 c-32 -59 -95 -104 -167 -119 -26 -6 -135 -11 -241 -11
-182 -1 -195 -3 -216 -22 -33 -31 -31 -80 4 -108 27 -21 35 -21 268 -18 l240
3 65 31 c37 18 85 52 113 79 56 58 113 165 102 192 -8 17 -8 17 -12 1 -6 -23
-83 -26 -83 -4 0 8 -4 17 -9 20 -4 3 -7 -7 -5 -22 l4 -27 -12 28 c-7 15 -14
27 -17 27 -3 0 -18 -23 -34 -50z m33 10 c0 -11 -4 -20 -9 -20 -5 0 -7 9 -4 20
3 11 7 20 9 20 2 0 4 -9 4 -20z"/>
<path d="M947 718 c-38 -30 -38 -95 1 -124 46 -35 122 5 122 65 0 54 -79 92
-123 59z"/>
<path d="M640 300 l0 -70 40 0 c45 0 66 25 56 66 -6 24 -45 42 -65 29 -7 -4
-11 4 -11 19 0 14 -4 26 -10 26 -6 0 -10 -30 -10 -70z m78 -16 c4 -25 -20 -47
-42 -38 -16 6 -22 45 -9 58 14 14 48 1 51 -20z"/>
<path d="M1420 302 l0 -69 40 -1 c45 -2 66 22 56 64 -6 24 -45 42 -65 29 -7
-4 -11 4 -11 19 0 14 -4 26 -10 26 -6 0 -10 -29 -10 -68z m78 -18 c4 -25 -20
-47 -42 -38 -16 6 -22 45 -9 58 14 14 48 1 51 -20z"/>
<path d="M2050 300 c0 -40 4 -70 10 -70 6 0 10 30 10 70 0 40 -4 70 -10 70 -6
0 -10 -30 -10 -70z"/>
<path d="M130 327 c0 -16 34 -97 40 -97 5 0 13 12 18 28 l10 27 11 -27 c14
-38 24 -35 40 10 8 20 16 43 18 50 3 6 1 12 -5 12 -6 0 -15 -15 -22 -32 -12
-32 -12 -33 -22 -10 -6 12 -14 22 -18 22 -4 0 -12 -10 -18 -22 -10 -23 -10
-22 -22 10 -7 17 -16 32 -21 32 -5 0 -9 -1 -9 -3z"/>
<path d="M290 315 c0 -25 28 -85 39 -85 6 0 11 9 11 19 0 30 17 34 24 6 4 -14
10 -25 15 -25 9 0 41 71 41 90 0 23 -19 8 -25 -20 -8 -35 -20 -39 -28 -10 -7
27 -23 25 -32 -2 -6 -22 -7 -21 -21 10 -15 35 -24 41 -24 17z"/>
<path d="M440 323 c0 -15 33 -93 39 -93 4 0 12 12 18 28 l10 27 11 -28 c14
-34 27 -29 42 18 16 49 6 68 -13 25 -15 -33 -16 -34 -22 -12 -9 27 -25 29 -32
2 -8 -29 -20 -25 -28 10 -6 26 -25 43 -25 23z"/>
<path d="M772 318 c-15 -15 -15 -61 0 -76 15 -15 65 -16 74 0 5 8 0 9 -15 5
-26 -6 -51 1 -51 14 0 5 16 9 35 9 27 0 35 4 35 18 0 24 -19 42 -45 42 -12 0
-26 -5 -33 -12z m58 -18 c0 -5 -11 -10 -25 -10 -14 0 -25 5 -25 10 0 6 11 10
25 10 14 0 25 -4 25 -10z"/>
<path d="M884 309 c-14 -15 -16 -25 -8 -47 8 -23 15 -27 52 -28 l42 -2 0 47
c0 47 0 48 -34 49 -22 1 -40 -6 -52 -19z m66 -28 c0 -32 -24 -48 -46 -30 -15
12 -19 41 -7 52 3 4 17 7 30 7 19 0 23 -5 23 -29z"/>
<path d="M1000 278 c0 -57 17 -65 22 -10 2 30 7 38 26 40 20 3 22 -1 22 -37 0
-51 18 -54 22 -3 2 29 7 37 23 37 16 0 21 -8 23 -37 4 -45 22 -51 22 -7 0 58
-36 89 -68 57 -9 -9 -12 -9 -12 -1 0 7 -16 11 -40 10 l-40 -1 0 -48z"/>
<path d="M1190 276 c0 -27 2 -47 4 -45 4 4 12 42 15 72 1 4 10 7 21 7 17 0 20
-7 20 -40 0 -51 18 -53 22 -2 2 30 7 38 26 40 20 3 22 -1 22 -37 0 -23 5 -41
10 -41 11 0 14 59 4 84 -7 18 -39 22 -49 6 -5 -8 -11 -8 -19 -1 -7 6 -27 9
-44 8 -31 -2 -32 -3 -32 -51z"/>
<path d="M1545 312 c-9 -24 -5 -82 5 -82 6 0 10 12 10 26 0 36 17 64 35 58 8
-4 15 -1 15 5 0 15 -59 9 -65 -7z"/>
<path d="M1632 283 c3 -46 4 -48 35 -51 40 -4 55 19 43 68 l-8 35 -1 -36 c-1
-38 -22 -66 -41 -54 -5 3 -10 24 -10 46 0 21 -5 39 -11 39 -6 0 -9 -19 -7 -47z"/>
<path d="M1746 315 c-8 -22 0 -34 30 -45 36 -14 31 -34 -6 -26 -19 3 -29 2
-25 -4 9 -15 62 -12 68 3 7 19 -4 33 -30 41 -13 4 -23 11 -23 16 0 17 21 22
37 8 14 -11 16 -11 11 2 -7 22 -54 25 -62 5z"/>
<path d="M1847 324 c-17 -17 -5 -43 24 -53 40 -14 28 -35 -14 -26 -25 6 -29 4
-21 -5 6 -6 24 -10 40 -8 41 4 43 33 3 53 -21 11 -28 20 -21 27 7 7 17 6 32
-2 18 -10 21 -9 18 2 -5 14 -49 23 -61 12z"/>
<path d="M1945 310 c-15 -16 -17 -26 -9 -48 8 -22 16 -28 47 -30 22 -2 37 1
37 8 0 6 -10 8 -23 5 -15 -4 -28 -1 -36 9 -12 14 -9 16 22 16 44 0 55 15 31
41 -22 25 -46 24 -69 -1z m60 -10 c4 -6 -7 -10 -25 -10 -18 0 -29 4 -25 10 3
6 15 10 25 10 10 0 22 -4 25 -10z"/>
<path d="M2104 316 c-8 -20 3 -35 32 -46 36 -14 31 -34 -6 -26 -19 3 -29 2
-25 -4 9 -14 62 -12 67 3 7 17 -1 37 -15 37 -21 0 -40 17 -33 29 5 8 13 8 28
0 16 -9 19 -8 16 3 -7 19 -57 23 -64 4z"/>
<path d="M590 240 c0 -5 5 -10 10 -10 6 0 10 5 10 10 0 6 -4 10 -10 10 -5 0
-10 -4 -10 -10z"/>
<path d="M1370 240 c0 -5 5 -10 10 -10 6 0 10 5 10 10 0 6 -4 10 -10 10 -5 0
-10 -4 -10 -10z"/>
</g>
</svg>
