<?xml version="1.0" encoding="utf-8"?>
<!-- Generator: Adobe Illustrator 25.4.1, SVG Export Plug-In . SVG Version: 6.00 Build 0)  -->
<svg version="1.1" xmlns="http://www.w3.org/2000/svg" xmlns:xlink="http://www.w3.org/1999/xlink" x="0px" y="0px"
	 viewBox="0 0 318.05 51.42" style="enable-background:new 0 0 318.05 51.42;" xml:space="preserve">
<style type="text/css">
	.st0{fill:url(#SVGID_1_);}
</style>
<g id="Laag_1">
</g>
<g id="Laag_2">
	<linearGradient id="SVGID_1_" gradientUnits="userSpaceOnUse" x1="33.2031" y1="-1.4917" x2="33.2031" y2="49.9385">
		<stop  offset="0" style="stop-color:#FDCA00">
			<animate attributeName="stop-color" values="#FDCA00; #BF914A; #A07265; #805280; #5E4A97; #08B5CC; #1EB7BA; #52BB8F; #80BF68; #A6C348; #C6C52E; #DEC71A; #EFC90B; #FACA03; #FDCA00" dur="4s" repeatCount="indefinite"></animate>
		</stop>
		<stop  offset="0.1065" style="stop-color:#FACA03">
			<animate attributeName="stop-color" values="#FACA03; #FDCA00; #BF914A; #A07265; #805280; #5E4A97; #08B5CC; #1EB7BA; #52BB8F; #80BF68; #A6C348; #C6C52E; #DEC71A; #EFC90B; #FACA03" dur="4s" repeatCount="indefinite"></animate>
		</stop>
		<stop  offset="0.1949" style="stop-color:#EFC90B">
			<animate attributeName="stop-color" values="#EFC90B; #FACA03; #FDCA00; #BF914A; #A07265; #805280; #5E4A97; #08B5CC; #1EB7BA; #52BB8F; #80BF68; #A6C348; #C6C52E; #DEC71A; #EFC90B" dur="4s" repeatCount="indefinite"></animate>
		</stop>
		<stop  offset="0.277" style="stop-color:#DEC71A">
			<animate attributeName="stop-color" values="#DEC71A; #EFC90B; #FACA03; #FDCA00; #BF914A; #A07265; #805280; #5E4A97; #08B5CC; #1EB7BA; #52BB8F; #80BF68; #A6C348; #C6C52E; #DEC71A" dur="4s" repeatCount="indefinite"></animate>
		</stop>
		<stop  offset="0.3552" style="stop-color:#C6C52E">
			<animate attributeName="stop-color" values="#C6C52E; #DEC71A; #EFC90B; #FACA03; #FDCA00; #BF914A; #A07265; #805280; #5E4A97; #08B5CC; #1EB7BA; #52BB8F; #80BF68; #A6C348; #C6C52E" dur="4s" repeatCount="indefinite"></animate>
		</stop>
		<stop  offset="0.4307" style="stop-color:#A6C348">
			<animate attributeName="stop-color" values="#A6C348; #C6C52E; #DEC71A; #EFC90B; #FACA03; #FDCA00; #BF914A; #A07265; #805280; #5E4A97; #08B5CC; #1EB7BA; #52BB8F; #80BF68; #A6C348" dur="4s" repeatCount="indefinite"></animate>
		</stop>
		<stop  offset="0.5041" style="stop-color:#80BF68">
			<animate attributeName="stop-color" values="#80BF68; #A6C348; #C6C52E; #DEC71A; #EFC90B; #FACA03; #FDCA00; #BF914A; #A07265; #805280; #5E4A97; #08B5CC; #1EB7BA; #52BB8F; #80BF68" dur="4s" repeatCount="indefinite"></animate>
		</stop>
		<stop  offset="0.5758" style="stop-color:#52BB8F">
			<animate attributeName="stop-color" values="#52BB8F; #80BF68; #A6C348; #C6C52E; #DEC71A; #EFC90B; #FACA03; #FDCA00; #BF914A; #A07265; #805280; #5E4A97; #08B5CC; #1EB7BA; #52BB8F" dur="4s" repeatCount="indefinite"></animate>
		</stop>
		<stop  offset="0.6445" style="stop-color:#1EB7BA">
			<animate attributeName="stop-color" values="#1EB7BA; #52BB8F; #80BF68; #A6C348; #C6C52E; #DEC71A; #EFC90B; #FACA03; #FDCA00; #BF914A; #A07265; #805280; #5E4A97; #08B5CC; #1EB7BA" dur="4s" repeatCount="indefinite"></animate>
		</stop>
		<stop  offset="0.671" style="stop-color:#08B5CC">
			<animate attributeName="stop-color" values="#08B5CC; #1EB7BA; #52BB8F; #80BF68; #A6C348; #C6C52E; #DEC71A; #EFC90B; #FACA03; #FDCA00; #BF914A; #A07265; #805280; #5E4A97; #08B5CC" dur="4s" repeatCount="indefinite"></animate>
		</stop>
		<stop  offset="1" style="stop-color:#5E4A97">
			<animate attributeName="stop-color" values="#5E4A97; #08B5CC; #1EB7BA; #52BB8F; #80BF68; #A6C348; #C6C52E; #DEC71A; #EFC90B; #FACA03; #FDCA00; #BF914A; #A07265; #805280; #5E4A97" dur="4s" repeatCount="indefinite"></animate>
		</stop>
	</linearGradient>
	<path class="st0" d="M66.4,37.54c-0.1,3.81-1.68,7.35-4.45,9.97c-2.67,2.53-6.14,3.91-9.8,3.91c-0.13,0-0.27,0-0.4-0.01l-12.12,0
		c-1.57,0-2.83-1.27-2.83-2.83s1.27-2.83,2.83-2.83h12.2c2.37,0.05,4.56-0.77,6.22-2.35c1.67-1.58,2.62-3.71,2.68-6.01
		s-0.77-4.48-2.35-6.15c-1.58-1.67-3.71-2.62-6.01-2.68l-0.63-0.03H13.97c-1.57,0-2.83-1.27-2.83-2.83s1.27-2.83,2.83-2.83h37.99
		c4.71,0.08,8.64-3.64,8.77-8.36c0.06-2.3-0.77-4.48-2.35-6.15s-3.71-2.62-6.01-2.68L26,5.67c-1.57,0-2.83-1.27-2.83-2.83
		S24.43,0,26,0h26.45c3.89,0.1,7.43,1.69,10.05,4.45c2.62,2.77,4.01,6.39,3.9,10.2c-0.12,4.54-2.36,8.53-5.74,11.05
		C64.24,28.38,66.53,32.72,66.4,37.54z M53.59,14.21c0-1.53-1.24-2.77-2.77-2.77H13.97c-1.53,0-2.77,1.24-2.77,2.77
		s1.24,2.77,2.77,2.77h36.85C52.35,16.98,53.59,15.74,53.59,14.21z M53.59,37.11c0-1.53-1.24-2.77-2.77-2.77H26.97
		c-1.53,0-2.77,1.24-2.77,2.77s1.24,2.77,2.77,2.77h23.85C52.35,39.89,53.59,38.65,53.59,37.11z M21.34,37.11
		c0-1.53-1.24-2.77-2.77-2.77h-2.85c-1.53,0-2.77,1.24-2.77,2.77s1.24,2.77,2.77,2.77h2.85C20.1,39.89,21.34,38.65,21.34,37.11z
		 M8.4,14.21c0-1.53-1.24-2.77-2.77-2.77H2.77C1.24,11.44,0,12.68,0,14.21s1.24,2.77,2.77,2.77h2.85C7.15,16.98,8.4,15.74,8.4,14.21
		z M32.5,45.75c-1.57,0-2.84,1.27-2.84,2.84s1.27,2.84,2.84,2.84s2.84-1.27,2.84-2.84S34.07,45.75,32.5,45.75z M18.85,0
		c-1.57,0-2.84,1.27-2.84,2.84s1.27,2.84,2.84,2.84s2.84-1.27,2.84-2.84S20.42,0,18.85,0z"/>
	<g>
		<path d="M86.14,35.88v2.02c0,1.26-0.98,2.24-2.18,2.24c-1.26,0-2.18-0.98-2.18-2.24V2.22c0-1.2,0.93-2.18,2.18-2.18
			c1.2,0,2.18,0.98,2.18,2.18v13.47c2.51-2.67,6.11-4.37,10.21-4.37c8.02,0,14.14,6.39,14.14,14.47c0,8.08-6.11,14.47-14.14,14.47
			C92.25,40.25,88.65,38.61,86.14,35.88z M106.06,25.78c0-5.9-4.42-10.43-9.99-10.43c-5.46,0-9.72,4.31-9.94,9.99v0.87
			c0.22,5.68,4.48,9.99,9.94,9.99C101.64,36.21,106.06,31.68,106.06,25.78z"/>
		<path d="M112.78,25.78c0-8.08,6.22-14.47,14.41-14.47c3.98,0,7.32,1.53,9.44,3.49c0.49,0.44,0.82,1.04,0.82,1.69
			c0,0.55-0.16,1.04-0.71,1.64l-9.72,11.63c-0.44,0.49-0.93,0.71-1.53,0.71c-1.2,0-2.07-0.82-2.07-1.97c0-0.49,0.11-0.98,0.49-1.36
			l8.52-10.05c-1.42-1.2-3.44-1.75-5.24-1.75c-5.57,0-9.99,4.59-9.99,10.43c0,5.79,4.37,10.43,9.99,10.43
			c3.11,0,5.57-1.36,7.26-3.28c0.6-0.55,1.09-0.98,1.86-0.98c1.26,0,2.18,0.87,2.18,2.07c0,0.44-0.27,1.04-0.65,1.47
			c-2.29,2.73-6.06,4.75-10.65,4.75C119.05,40.25,112.78,33.86,112.78,25.78z"/>
		<path d="M163.54,35.88c-2.57,2.73-6.11,4.37-10.21,4.37c-8.02,0-14.14-6.39-14.14-14.47c0-8.08,6.11-14.47,14.14-14.47
			c4.09,0,7.64,1.69,10.21,4.37v-2.07c0-1.2,0.98-2.18,2.18-2.18c1.26,0,2.18,0.98,2.18,2.18V37.9c0,1.26-0.93,2.24-2.18,2.24
			c-1.2,0-2.18-0.98-2.18-2.24V35.88z M163.54,26.22v-0.87c-0.22-5.68-4.53-9.99-9.94-9.99c-5.57,0-9.99,4.53-9.99,10.43
			c0,5.9,4.42,10.43,9.99,10.43C159.01,36.21,163.32,31.9,163.54,26.22z"/>
		<path d="M172.15,21.91c0-6.82,4.48-10.59,10.05-10.59c3.55,0,6.33,1.31,7.92,3.99c1.53-2.68,4.59-3.99,7.86-3.99
			c5.62,0,10.1,3.77,10.1,10.59V37.9c0,1.26-0.98,2.24-2.18,2.24c-1.26,0-2.18-0.98-2.18-2.24V21.85c0-4.31-2.51-6.5-5.73-6.5
			c-3.17,0-5.68,2.18-5.68,6.5V37.9c0,1.26-0.98,2.24-2.18,2.24c-1.26,0-2.18-0.98-2.18-2.24V21.85c0-4.31-2.51-6.5-5.73-6.5
			c-3.17,0-5.68,2.18-5.68,6.5V37.9c0,1.26-0.98,2.24-2.18,2.24c-1.26,0-2.18-0.98-2.18-2.24V21.91z"/>
		<path d="M212.27,21.91c0-6.82,4.48-10.59,10.05-10.59c3.55,0,6.33,1.31,7.92,3.99c1.53-2.68,4.59-3.99,7.86-3.99
			c5.62,0,10.1,3.77,10.1,10.59V37.9c0,1.26-0.98,2.24-2.18,2.24c-1.26,0-2.18-0.98-2.18-2.24V21.85c0-4.31-2.51-6.5-5.73-6.5
			c-3.17,0-5.68,2.18-5.68,6.5V37.9c0,1.26-0.98,2.24-2.18,2.24c-1.26,0-2.18-0.98-2.18-2.24V21.85c0-4.31-2.51-6.5-5.73-6.5
			c-3.17,0-5.68,2.18-5.68,6.5V37.9c0,1.26-0.98,2.24-2.18,2.24c-1.26,0-2.18-0.98-2.18-2.24V21.91z"/>
	</g>
	<g>
		<path d="M251.38,38.7c0-0.72,0.55-1.27,1.27-1.27c0.7,0,1.25,0.55,1.25,1.27c0,0.7-0.55,1.27-1.25,1.27
			C251.93,39.97,251.38,39.39,251.38,38.7z"/>
		<path d="M257.76,38.52v0.67c0,0.41-0.32,0.74-0.72,0.74c-0.41,0-0.72-0.32-0.72-0.74V27.75c0-0.4,0.31-0.72,0.72-0.72
			c0.4,0,0.72,0.32,0.72,0.72v4.11c0.83-0.88,2.02-1.44,3.37-1.44c2.65,0,4.66,2.11,4.66,4.77c0,2.66-2.02,4.77-4.66,4.77
			C259.78,39.96,258.59,39.42,257.76,38.52z M264.34,35.19c0-1.95-1.46-3.44-3.29-3.44c-1.8,0-3.2,1.42-3.28,3.29v0.29
			c0.07,1.87,1.48,3.29,3.28,3.29C262.88,38.63,264.34,37.13,264.34,35.19z"/>
		<path d="M267.83,34.31c0-2.32,1.48-3.89,3.71-3.89c0.36,0,0.67,0.29,0.67,0.67c0,0.36-0.31,0.67-0.67,0.67
			c-1.33,0-2.27,0.88-2.27,2.56v4.88c0,0.41-0.32,0.74-0.72,0.74c-0.41,0-0.72-0.32-0.72-0.74V34.31z"/>
		<path d="M273.8,31.17c0-0.4,0.31-0.72,0.72-0.72c0.4,0,0.72,0.32,0.72,0.72v4.66c0,1.84,1.12,2.79,2.5,2.79
			c1.4,0,2.52-0.95,2.52-2.79v-4.66c0-0.4,0.31-0.72,0.72-0.72c0.4,0,0.72,0.32,0.72,0.72v4.61c0,2.61-1.75,4.18-3.96,4.18
			c-2.2,0-3.94-1.57-3.94-4.18V31.17z"/>
		<path d="M284.37,37.08c0.23,0,0.52,0.14,0.61,0.43c0.16,0.5,0.63,1.15,1.6,1.15c0.86,0,1.42-0.63,1.42-1.31
			c0-0.9-0.72-1.31-1.67-1.64c-1.24-0.41-2.5-0.9-2.5-2.68c0-1.48,1.17-2.61,2.77-2.61c1.51,0,2.79,0.94,2.79,2.16
			c0,0.36-0.29,0.65-0.65,0.65c-0.2,0-0.52-0.09-0.63-0.5c-0.13-0.47-0.67-1.03-1.51-1.03c-0.88,0-1.39,0.63-1.39,1.33
			c0,0.95,0.86,1.28,1.93,1.62c1.13,0.34,2.3,0.97,2.3,2.66c0,1.42-1.22,2.65-2.86,2.65c-1.57,0-2.86-1.06-2.86-2.23
			C283.72,37.37,284.01,37.08,284.37,37.08z"/>
		<path d="M291.71,37.08c0.23,0,0.52,0.14,0.61,0.43c0.16,0.5,0.63,1.15,1.6,1.15c0.86,0,1.42-0.63,1.42-1.31
			c0-0.9-0.72-1.31-1.67-1.64c-1.24-0.41-2.5-0.9-2.5-2.68c0-1.48,1.17-2.61,2.77-2.61c1.51,0,2.79,0.94,2.79,2.16
			c0,0.36-0.29,0.65-0.65,0.65c-0.2,0-0.52-0.09-0.63-0.5c-0.13-0.47-0.67-1.03-1.51-1.03c-0.88,0-1.39,0.63-1.39,1.33
			c0,0.95,0.86,1.28,1.93,1.62c1.13,0.34,2.3,0.97,2.3,2.66c0,1.42-1.22,2.65-2.86,2.65c-1.57,0-2.86-1.06-2.86-2.23
			C291.06,37.37,291.35,37.08,291.71,37.08z"/>
		<path d="M298.41,35.19c0-2.67,2.05-4.77,4.75-4.77c1.31,0,2.41,0.5,3.12,1.15c0.16,0.14,0.27,0.34,0.27,0.56
			c0,0.18-0.05,0.34-0.23,0.54l-3.21,3.84c-0.14,0.16-0.31,0.23-0.5,0.23c-0.4,0-0.68-0.27-0.68-0.65c0-0.16,0.04-0.32,0.16-0.45
			l2.81-3.31c-0.47-0.4-1.13-0.58-1.73-0.58c-1.84,0-3.29,1.51-3.29,3.44c0,1.91,1.44,3.44,3.29,3.44c1.03,0,1.84-0.45,2.39-1.08
			c0.2-0.18,0.36-0.32,0.61-0.32c0.41,0,0.72,0.29,0.72,0.68c0,0.14-0.09,0.34-0.22,0.49c-0.76,0.9-2,1.57-3.51,1.57
			C300.48,39.96,298.41,37.85,298.41,35.19z"/>
		<path d="M308.87,27.75c0-0.4,0.31-0.72,0.72-0.72c0.4,0,0.72,0.32,0.72,0.72v11.43c0,0.41-0.32,0.74-0.72,0.74
			c-0.41,0-0.72-0.32-0.72-0.74V27.75z"/>
		<path d="M312.97,37.08c0.23,0,0.52,0.14,0.61,0.43c0.16,0.5,0.63,1.15,1.6,1.15c0.86,0,1.42-0.63,1.42-1.31
			c0-0.9-0.72-1.31-1.67-1.64c-1.24-0.41-2.5-0.9-2.5-2.68c0-1.48,1.17-2.61,2.77-2.61c1.51,0,2.79,0.94,2.79,2.16
			c0,0.36-0.29,0.65-0.65,0.65c-0.2,0-0.52-0.09-0.63-0.5c-0.13-0.47-0.67-1.03-1.51-1.03c-0.88,0-1.39,0.63-1.39,1.33
			c0,0.95,0.86,1.28,1.93,1.62c1.13,0.34,2.3,0.97,2.3,2.66c0,1.42-1.22,2.65-2.86,2.65c-1.57,0-2.86-1.06-2.86-2.23
			C312.32,37.37,312.61,37.08,312.97,37.08z"/>
	</g>
</g>
</svg>
